<?xml version="1.0" standalone="no"?>
<!DOCTYPE svg PUBLIC "-//W3C//DTD SVG 20010904//EN"
 "http://www.w3.org/TR/2001/REC-SVG-20010904/DTD/svg10.dtd">
<svg version="1.0" xmlns="http://www.w3.org/2000/svg"
 width="398.000000pt" height="262.000000pt" viewBox="0 0 398.000000 262.000000"
 preserveAspectRatio="xMidYMid meet">
<metadata>
Created by potrace 1.16, written by Peter Selinger 2001-2019
</metadata>
<g transform="translate(0.000000,262.000000) scale(0.100000,-0.100000)"
fill="#000000" stroke="none">
<path d="M1760 1750 c0 -5 -9 -10 -20 -10 -13 0 -20 -7 -20 -20 0 -11 -4 -20
-10 -20 -5 0 -10 -25 -10 -55 0 -46 4 -60 25 -80 13 -14 31 -25 40 -25 8 0 15
-4 15 -10 0 -5 14 -10 30 -10 17 0 30 5 30 10 0 6 7 10 15 10 20 0 65 45 65
65 0 8 5 15 10 15 6 0 10 14 10 30 0 17 -4 30 -10 30 -5 0 -10 7 -10 15 0 9
-11 27 -25 40 -20 21 -34 25 -80 25 -30 0 -55 -4 -55 -10z"/>
</g>
</svg>
